<svg xmlns="http://www.w3.org/2000/svg" width="1200" height="900" viewBox="0 0 1200 900">
<rect width="100%" height="100%" fill="#0f0f1a"/>
<line x1="600.0" y1="60.0" x2="769.2" y2="98.6" stroke="#3a3a5a" stroke-width="0.5" stroke-opacity="0.6"/>
<line x1="600.0" y1="60.0" x2="904.9" y2="206.8" stroke="#3a3a5a" stroke-width="0.5" stroke-opacity="0.6"/>
<line x1="600.0" y1="60.0" x2="980.2" y2="363.2" stroke="#3a3a5a" stroke-width="0.5" stroke-opacity="0.6"/>
<line x1="600.0" y1="60.0" x2="980.2" y2="536.8" stroke="#3a3a5a" stroke-width="0.5" stroke-opacity="0.6"/>
<line x1="600.0" y1="60.0" x2="904.9" y2="693.2" stroke="#3a3a5a" stroke-width="0.5" stroke-opacity="0.6"/>
<line x1="904.9" y1="693.2" x2="980.2" y2="536.8" stroke="#3a3a5a" stroke-width="0.5" stroke-opacity="0.6"/>
<line x1="769.2" y1="801.4" x2="600.0" y2="840.0" stroke="#3a3a5a" stroke-width="0.5" stroke-opacity="0.6"/>
<line x1="769.2" y1="801.4" x2="430.8" y2="801.4" stroke="#3a3a5a" stroke-width="0.5" stroke-opacity="0.6"/>
<line x1="769.2" y1="801.4" x2="295.1" y2="693.2" stroke="#3a3a5a" stroke-width="0.5" stroke-opacity="0.6"/>
<line x1="769.2" y1="801.4" x2="219.8" y2="536.8" stroke="#3a3a5a" stroke-width="0.5" stroke-opacity="0.6"/>
<line x1="769.2" y1="801.4" x2="219.8" y2="363.2" stroke="#3a3a5a" stroke-width="0.5" stroke-opacity="0.6"/>
<line x1="769.2" y1="801.4" x2="295.1" y2="206.8" stroke="#3a3a5a" stroke-width="0.5" stroke-opacity="0.6"/>
<line x1="769.2" y1="801.4" x2="430.8" y2="98.6" stroke="#3a3a5a" stroke-width="0.5" stroke-opacity="0.6"/>
<line x1="430.8" y1="98.6" x2="295.1" y2="206.8" stroke="#3a3a5a" stroke-width="0.5" stroke-opacity="0.6"/>
<circle cx="600.0" cy="60.0" r="6" fill="#F28E2B" opacity="0.85"><title>useGpsRegion</title></circle>
<circle cx="769.2" cy="98.6" r="6" fill="#F28E2B" opacity="0.85"><title>react/useState</title></circle>
<circle cx="904.9" cy="206.8" r="6" fill="#F28E2B" opacity="0.85"><title>react/useEffect</title></circle>
<circle cx="980.2" cy="363.2" r="6" fill="#F28E2B" opacity="0.85"><title>expo-location</title></circle>
<circle cx="980.2" cy="536.8" r="6" fill="#F28E2B" opacity="0.85"><title>detectRegion()</title></circle>
<circle cx="904.9" cy="693.2" r="6" fill="#F28E2B" opacity="0.85"><title>useGpsRegion()</title></circle>
<circle cx="769.2" cy="801.4" r="6" fill="#4E79A7" opacity="0.85"><title>usePersistedReports</title></circle>
<circle cx="600.0" cy="840.0" r="6" fill="#4E79A7" opacity="0.85"><title>react/useCallback</title></circle>
<circle cx="430.8" cy="801.4" r="6" fill="#4E79A7" opacity="0.85"><title>@/lib/config/JAVA_BASE_URL</title></circle>
<circle cx="295.1" cy="693.2" r="6" fill="#4E79A7" opacity="0.85"><title>@/contexts/AlertContext/AlertType</title></circle>
<circle cx="219.8" cy="536.8" r="6" fill="#4E79A7" opacity="0.85"><title>@/contexts/AlertContext/ALERT_CONFIGS</title></circle>
<circle cx="219.8" cy="363.2" r="6" fill="#4E79A7" opacity="0.85"><title>@/contexts/MessagesContext/Message</title></circle>
<circle cx="295.1" cy="206.8" r="6" fill="#4E79A7" opacity="0.85"><title>formatDate()</title></circle>
<circle cx="430.8" cy="98.6" r="6" fill="#4E79A7" opacity="0.85"><title>usePersistedReports()</title></circle>
<text x="600.0" y="51.0" fill="#ccc" font-size="9" font-family="sans-serif" text-anchor="middle">useGpsRegion</text>
<text x="769.2" y="89.6" fill="#ccc" font-size="9" font-family="sans-serif" text-anchor="middle">react/useState</text>
<text x="904.9" y="197.8" fill="#ccc" font-size="9" font-family="sans-serif" text-anchor="middle">react/useEffect</text>
<text x="980.2" y="354.2" fill="#ccc" font-size="9" font-family="sans-serif" text-anchor="middle">expo-location</text>
<text x="980.2" y="527.8" fill="#ccc" font-size="9" font-family="sans-serif" text-anchor="middle">detectRegion()</text>
<text x="904.9" y="684.2" fill="#ccc" font-size="9" font-family="sans-serif" text-anchor="middle">useGpsRegion()</text>
<text x="769.2" y="792.4" fill="#ccc" font-size="9" font-family="sans-serif" text-anchor="middle">usePersistedReports</text>
<text x="600.0" y="831.0" fill="#ccc" font-size="9" font-family="sans-serif" text-anchor="middle">react/useCallback</text>
<text x="430.8" y="792.4" fill="#ccc" font-size="9" font-family="sans-serif" text-anchor="middle">@/lib/config/JAVA_BASE_URL</text>
<text x="295.1" y="684.2" fill="#ccc" font-size="9" font-family="sans-serif" text-anchor="middle">@/contexts/AlertContext/AlertType</text>
<text x="219.8" y="527.8" fill="#ccc" font-size="9" font-family="sans-serif" text-anchor="middle">@/contexts/AlertContext/ALERT_CONFIGS</text>
<text x="219.8" y="354.2" fill="#ccc" font-size="9" font-family="sans-serif" text-anchor="middle">@/contexts/MessagesContext/Message</text>
<text x="295.1" y="197.8" fill="#ccc" font-size="9" font-family="sans-serif" text-anchor="middle">formatDate()</text>
<text x="430.8" y="89.6" fill="#ccc" font-size="9" font-family="sans-serif" text-anchor="middle">usePersistedReports()</text>
</svg>
