<svg xmlns="http://www.w3.org/2000/svg" viewBox="0 0 100 110" width="100" height="110">
  <!-- Version monochrome -->

  <!-- Bouclier noir -->
  <path d="M50 4
           C50 4 82 15 86 20
           L86 54
           Q86 82 50 98
           Q14 82 14 54
           L14 20
           C18 15 50 4 50 4 Z"
        fill="#1A1A1A"/>

  <!-- Main blanche -->
  <g transform="translate(50,62)">
    <rect x="-14" y="0"   width="28"  height="22"  rx="7"   fill="white"/>
    <rect x="-14" y="-24" width="6.5" height="26"  rx="3.2" fill="white"/>
    <rect x="-6"  y="-30" width="6.5" height="32"  rx="3.2" fill="white"/>
    <rect x="2"   y="-29" width="6.5" height="31"  rx="3.2" fill="white"/>
    <rect x="10"  y="-23" width="6.5" height="25"  rx="3.2" fill="white"/>
    <rect x="-22" y="-7"  width="9"   height="16"  rx="4.5" fill="white"/>
  </g>

  <!-- Signal blanc -->
  <g transform="translate(50,34)">
    <path d="M-19 0 Q0 -14 19 0" fill="none" stroke="white" stroke-width="3.8" stroke-linecap="round"/>
    <path d="M-12 0 Q0 -9  12 0" fill="none" stroke="white" stroke-width="2.6" stroke-linecap="round" opacity="0.65"/>
    <path d="M-6  0 Q0 -4.5 6 0" fill="none" stroke="white" stroke-width="2"   stroke-linecap="round" opacity="0.4"/>
    <circle cx="0" cy="2" r="3.2" fill="white"/>
  </g>
</svg>
