<svg xmlns="http://www.w3.org/2000/svg" viewBox="0 0 32 32" width="32" height="32">
  <defs>
    <linearGradient id="sg" x1="20%" y1="0%" x2="80%" y2="100%">
      <stop offset="0%"  stop-color="#1A8FFF"/>
      <stop offset="100%" stop-color="#0044CC"/>
    </linearGradient>
  </defs>

  <!-- Fond app icon -->
  <rect width="32" height="32" rx="7" fill="#0B1E3D"/>

  <!-- Bouclier compact -->
  <path d="M16 2 C16 2 27 6 28 8 L28 18 Q28 27 16 31 Q4 27 4 18 L4 8 C5 6 16 2 16 2 Z"
        fill="url(#sg)"/>

  <!-- Main mini -->
  <g transform="translate(16,19)">
    <rect x="-6"  y="0"   width="12" height="8"  rx="3"   fill="white"/>
    <rect x="-6"  y="-9"  width="3"  height="10" rx="1.5" fill="white"/>
    <rect x="-2"  y="-11" width="3"  height="12" rx="1.5" fill="white"/>
    <rect x="2"   y="-10" width="3"  height="11" rx="1.5" fill="white"/>
    <rect x="-9"  y="-3"  width="4"  height="6"  rx="2"   fill="white"/>
  </g>

  <!-- Signal orange mini -->
  <g transform="translate(16,11)">
    <path d="M-7 0 Q0 -5 7 0" fill="none" stroke="#FF6600" stroke-width="1.8" stroke-linecap="round"/>
    <path d="M-4 0 Q0 -3 4 0" fill="none" stroke="#FF8833" stroke-width="1.3" stroke-linecap="round" opacity="0.7"/>
    <circle cx="0" cy="1" r="1.5" fill="#FF6600"/>
  </g>
</svg>
